General
Complete name                    : Zathura- A space adventure (2005) DVDRip      
                                   Sehrawat.Vkas3385
Format                           : AVI
Format/Info                      : Audio Video Interleave
File size                        : 796 MiB
Duration                         : 1h 41mn
Overall bit rate                 : 1 098 Kbps
Writing application              : VirtualDubMod 1.5.10.2 (build 2542/release)
Writing library                  : VirtualDubMod build 2542/release

Video
ID                               : 0
Format                           : MPEG-4 Visual
Format profile                   : Advanced Simple@L5
Format settings, BVOP            : Yes
Format settings, QPel            : No
Format settings, GMC             : No warppoints
Format settings, Matrix          : Default (H.263)
Muxing mode                      : Packed bitstream
Codec ID                         : XVID
Codec ID/Hint                    : XviD
Duration                         : 1h 41mn
Bit rate                         : 793 Kbps
Width                            : 640 pixels
Height                           : 336 pixels
Display aspect ratio             : 1.905
Frame rate                       : 23.976 fps
Color space                      : YUV
Chroma subsampling               : 4:2:0
Bit depth                        : 8 bits
Scan type                        : Progressive
Bits/(Pixel*Frame)               : 0.154
Stream size                      : 575 MiB (72%)
Writing library                  : XviD 1.1.0 (UTC 2005-11-22)

Audio #1
ID                               : 1
Format                           : MPEG Audio
Format version                   : Version 1
Format profile                   : Layer 3
Mode                             : Joint stereo
Mode extension                   : MS Stereo
Codec ID                         : 55
Codec ID/Hint                    : MP3
Duration                         : 1h 41mn
Bit rate mode                    : Variable
Bit rate                         : 159 Kbps
Minimum bit rate                 : 128 Kbps
Channel(s)                       : 2 channels
Sampling rate                    : 48.0 KHz
Stream size                      : 115 MiB (14%)
Alignment                        : Aligned on interleaves
Interleave, duration             : 24 ms (0.58 video frame)
Interleave, preload duration     : 115 ms
Writing library                  : LAME3.97b
Encoding settings                : -m j -V 2 -q 3 -lowpass 18.6 --vbr-new -b 128

Audio #2
ID                               : 2
Format                           : MPEG Audio
Format version                   : Version 1
Format profile                   : Layer 3
Mode                             : Joint stereo
Mode extension                   : MS Stereo
Codec ID                         : 55
Codec ID/Hint                    : MP3
Duration                         : 1h 41mn
Bit rate mode                    : Constant
Bit rate                         : 128 Kbps
Channel(s)                       : 2 channels
Sampling rate                    : 44.1 KHz
Stream size                      : 92.8 MiB (12%)
Alignment                        : Split accross interleaves
Interleave, duration             : 42 ms (1.00 video frame)
Interleave, preload duration     : 500 ms
Writing library                  : LAME3.97

ScreenShots: 
http://img808.imageshack.us/img808/3748/zathuraaspaceadventure2.jpg 
http://img687.imageshack.us/img687/3748/zathuraaspaceadventure2.jpg 
http://img535.imageshack.us/img535/3748/zathuraaspaceadventure2.jpg 
http://img710.imageshack.us/img710/3748/zathuraaspaceadventure2.jpg 
http://img34.imageshack.us/img34/3748/zathuraaspaceadventure2.jpg 
http://img693.imageshack.us/img693/3748/zathuraaspaceadventure2.jpg 
http://img28.imageshack.us/img28/3748/zathuraaspaceadventure2.jpg
